# Blender v2.73 (sub 0) OBJ File: ''
# www.blender.org
mtllib fancy-bullet.mtl
o Torus.001
v 0.250000 0.062500 0.000000
v 0.187500 0.008529 0.000000
v 0.125000 0.062500 -0.216506
v 0.093750 0.008529 -0.162380
v -0.125000 0.062500 -0.216506
v -0.093750 0.008529 -0.162380
v -0.250000 0.062500 -0.000000
v -0.187500 0.008529 -0.000000
v -0.125000 0.062500 0.216506
v -0.093750 0.008529 0.162380
v 0.125000 0.062500 0.216506
v 0.093750 0.008529 0.162380
v 0.000000 0.008529 -0.000000
v 0.312500 0.000000 0.000000
v 0.250000 -0.062500 0.000000
v 0.187500 -0.008529 0.000000
v 0.156250 0.000000 -0.270633
v 0.125000 -0.062500 -0.216506
v 0.093750 -0.008529 -0.162380
v -0.156250 0.000000 -0.270633
v -0.125000 -0.062500 -0.216506
v -0.093750 -0.008529 -0.162380
v -0.312500 0.000000 -0.000000
v -0.250000 -0.062500 -0.000000
v -0.187500 -0.008529 -0.000000
v -0.156250 0.000000 0.270633
v -0.125000 -0.062500 0.216506
v -0.093750 -0.008529 0.162380
v 0.156250 0.000000 0.270633
v 0.125000 -0.062500 0.216506
v 0.093750 -0.008529 0.162380
v 0.000000 -0.008529 -0.000000
vn 0.654700 0.654700 -0.378000
vn -0.611500 0.708100 0.353000
vn 0.000000 0.654700 -0.755900
vn -0.000000 0.708100 0.706100
vn -0.654700 0.654700 -0.378000
vn 0.611500 0.708100 0.353000
vn -0.654700 0.654700 0.378000
vn 0.611500 0.708100 -0.353000
vn 0.000000 0.654700 0.755900
vn -0.000000 0.708100 -0.706100
vn 0.654700 0.654700 0.378000
vn -0.611500 0.708100 -0.353000
vn 0.000000 1.000000 0.000000
vn 0.654700 -0.654700 -0.378000
vn -0.611500 -0.708100 0.353000
vn 0.000000 -0.654700 -0.755900
vn -0.000000 -0.708100 0.706100
vn -0.654700 -0.654700 -0.378000
vn 0.611500 -0.708100 0.353000
vn -0.654700 -0.654700 0.378000
vn 0.611500 -0.708100 -0.353000
vn 0.000000 -0.654700 0.755900
vn -0.000000 -0.708100 -0.706100
vn 0.654700 -0.654700 0.378000
vn -0.611500 -0.708100 -0.353000
vn 0.000000 -1.000000 0.000000
usemtl Material.001
s off
f 14//1 17//1 3//1 1//1
f 1//2 3//2 4//2 2//2
f 17//3 20//3 5//3 3//3
f 3//4 5//4 6//4 4//4
f 20//5 23//5 7//5 5//5
f 5//6 7//6 8//6 6//6
f 23//7 26//7 9//7 7//7
f 7//8 9//8 10//8 8//8
f 26//9 29//9 11//9 9//9
f 9//10 11//10 12//10 10//10
f 29//11 14//11 1//11 11//11
f 11//12 1//12 2//12 12//12
f 10//13 12//13 13//13
f 6//13 8//13 13//13
f 8//13 10//13 13//13
f 12//13 2//13 13//13
f 4//13 6//13 13//13
f 2//13 4//13 13//13
f 14//14 15//14 18//14 17//14
f 15//15 16//15 19//15 18//15
f 17//16 18//16 21//16 20//16
f 18//17 19//17 22//17 21//17
f 20//18 21//18 24//18 23//18
f 21//19 22//19 25//19 24//19
f 23//20 24//20 27//20 26//20
f 24//21 25//21 28//21 27//21
f 26//22 27//22 30//22 29//22
f 27//23 28//23 31//23 30//23
f 29//24 30//24 15//24 14//24
f 30//25 31//25 16//25 15//25
f 28//26 32//26 31//26
f 22//26 32//26 25//26
f 25//26 32//26 28//26
f 31//26 32//26 16//26
f 19//26 32//26 22//26
f 16//26 32//26 19//26
